# xmcd
#
# Track frame offsets:
#	150
#	22455
#	45315
#	72585
#	95789
#	128904
#	158241
#	184097
#	201080
#	224577
#	249590
#	266257
#
# Disc length: 3910
#
# Revision: 2
# Processed by: cddbd v1.5.1PL0 Copyright (c) Steve Scherf et al.
# Submitted via: DiscPlay 4.0.4
# Normalized: r1:DSETVAR1,TDELIM( - )
#
DISCID=b80f440c
DTITLE=Various Artist - Rhythm Formula USA Vol 1 [CD1]
DYEAR=1900
DGENRE=
TTITLE0=Alexia - Number One
TTITLE1=Temperance - Forever Young
TTITLE2=Shauna Davis - Get Away
TTITLE3=Elastic Band - Running Up That Hill
TTITLE4=Soin That Wheel - Wake Up
TTITLE5=DJ's Rule - Get Into The Music
TTITLE6=D and G - Music
TTITLE7=Groove Sector - Love Attack
TTITLE8=Sunny Boyz - Enjoy
TTITLE9=Oval Emotion - Higher and Higher
TTITLE10=Antares - Whenever You Want Me
TTITLE11=Michelle Blade - Cryin' Over You
EXTD=
EXTT0=
EXTT1=
EXTT2=
EXTT3=
EXTT4=
EXTT5=
EXTT6=
EXTT7=
EXTT8=
EXTT9=
EXTT10=
EXTT11=
PLAYORDER=
